<svg width="1859" height="1466" viewBox="0 0 1859 1466" fill="none" xmlns="http://www.w3.org/2000/svg">
<g clip-path="url(#clip0_3310_91)">
<g style="mix-blend-mode:multiply" opacity="0.3">
<path d="M876.789 739.439H471.119C457.959 739.439 447.289 750.109 447.289 763.269V932.289C447.289 945.449 457.959 956.119 471.119 956.119H513.249C510.809 974.729 507.599 1001.42 509.359 1001.42C511.229 1001.42 531.669 973.339 544.029 956.119H876.789C889.949 956.119 900.619 945.449 900.619 932.289V763.269C900.619 750.109 889.949 739.439 876.789 739.439Z" fill="#DAEEF7"/>
</g>
<path d="M896.188 694.52H490.517C477.357 694.52 466.688 705.189 466.688 718.349V887.37C466.688 900.53 477.357 911.2 490.517 911.2H532.648C530.208 929.81 526.998 956.5 528.758 956.5C530.628 956.5 551.067 928.42 563.427 911.2H896.188C909.347 911.2 920.018 900.53 920.018 887.37V718.349C920.018 705.189 909.347 694.52 896.188 694.52Z" fill="#FEB546"/>
<path d="M587.468 845.713C610.801 822.379 610.801 784.547 587.468 761.213C564.134 737.879 526.302 737.879 502.968 761.213C479.635 784.547 479.635 822.379 502.968 845.713C526.302 869.046 564.134 869.046 587.468 845.713Z" fill="white"/>
<path d="M554.665 833.559H537.125V851.079H554.665V833.559Z" fill="#FFC0BB"/>
<path d="M554.677 844.069V833.569H537.137V842.499C540.917 844.529 546.507 845.689 554.677 844.069Z" fill="#F99893"/>
<path d="M582.336 802.21C580.506 801.31 578.376 801.469 576.456 802.439C577.116 785.159 562.996 770.619 545.216 771.229C527.436 770.619 513.316 785.149 513.976 802.439C512.056 801.469 509.926 801.31 508.096 802.21C504.586 803.94 503.496 808.89 505.656 813.28C507.826 817.66 512.426 819.81 515.936 818.08C516.426 817.84 516.856 817.529 517.256 817.179C519.266 831.469 531.206 842.179 545.216 841.979C559.226 842.179 571.166 831.469 573.176 817.179C573.566 817.529 574.006 817.84 574.496 818.08C578.006 819.81 582.606 817.66 584.776 813.28C586.936 808.9 585.846 803.94 582.336 802.21Z" fill="#FFC0BB"/>
<path d="M523.857 764.389C523.857 764.389 532.657 756.939 552.677 758.139C572.687 759.339 576.497 769.789 577.637 784.699L576.467 802.449C576.467 802.449 571.267 797.109 564.507 782.289C564.507 782.289 553.307 794.859 548.427 793.369C543.547 791.879 550.277 782.829 550.277 782.829C550.277 782.829 527.447 802.469 514.007 802.439C514.007 802.439 506.887 779.449 516.877 771.019C516.877 771.019 509.357 771.379 508.957 769.899C508.557 768.419 512.547 766.209 519.777 767.039C519.777 767.039 514.627 756.959 517.507 755.909C520.387 754.859 523.887 764.379 523.887 764.379L523.857 764.389Z" fill="#07085B"/>
<path d="M556.695 822.629C555.925 826.089 551.955 828.819 547.095 828.969C542.235 829.119 538.105 826.639 537.125 823.229L556.695 822.629Z" fill="white"/>
<path d="M627.877 743.22H860.967C862.267 743.22 863.317 744.27 863.317 745.57V751.25C863.317 752.55 862.267 753.6 860.967 753.6H627.877C626.577 753.6 625.527 752.55 625.527 751.25V745.57C625.527 744.27 626.577 743.22 627.877 743.22Z" fill="white"/>
<path d="M627.877 770.619H679.327C680.627 770.619 681.677 771.669 681.677 772.969V778.649C681.677 779.949 680.627 780.999 679.327 780.999H627.877C626.577 780.999 625.527 779.949 625.527 778.649V772.969C625.527 771.669 626.577 770.619 627.877 770.619Z" fill="white"/>
<path d="M860.987 770.619H705.237C703.939 770.619 702.887 771.671 702.887 772.969V778.649C702.887 779.947 703.939 780.999 705.237 780.999H860.987C862.285 780.999 863.337 779.947 863.337 778.649V772.969C863.337 771.671 862.285 770.619 860.987 770.619Z" fill="white"/>
<path d="M627.877 798.02H746.017C747.317 798.02 748.367 799.07 748.367 800.37V806.049C748.367 807.349 747.317 808.4 746.017 808.4H627.877C626.577 808.4 625.527 807.349 625.527 806.049V800.37C625.527 799.07 626.577 798.02 627.877 798.02Z" fill="white"/>
<path d="M768.698 798.02H860.978C862.278 798.02 863.328 799.07 863.328 800.37V806.049C863.328 807.349 862.278 808.4 860.978 808.4H768.698C767.398 808.4 766.348 807.349 766.348 806.049V800.37C766.348 799.07 767.398 798.02 768.698 798.02Z" fill="white"/>
<path d="M627.877 825.409H860.967C862.267 825.409 863.317 826.459 863.317 827.759V833.439C863.317 834.739 862.267 835.789 860.967 835.789H627.877C626.577 835.789 625.527 834.739 625.527 833.439V827.759C625.527 826.459 626.577 825.409 627.877 825.409Z" fill="white"/>
<path d="M1093.87 480.47L1108.65 573.17L1139.88 449.58C1139.88 449.58 1096.11 428.34 1094.18 436.06C1092.25 443.78 1093.87 480.47 1093.87 480.47Z" fill="#07085B"/>
<path d="M1342.3 679.99L1355.81 840.25L1214.39 833.49L1230.7 691.57L1342.3 679.99Z" fill="#FFC0BB"/>
<path d="M1222.94 759.07L1230.69 691.58L1342.29 679.99L1346.97 735.49C1324.78 757.6 1284.88 780.52 1222.94 759.07Z" fill="#F99893"/>
<path d="M1136.23 572.01C1144.73 589.6 1140.22 609.37 1126.15 616.17C1112.08 622.97 1093.78 614.23 1085.28 596.64C1076.78 579.05 1081.29 559.28 1095.36 552.48C1109.43 545.68 1127.73 554.42 1136.23 572.01Z" fill="#F99893"/>
<path d="M1135.21 653.32C1125.09 630.65 1119.17 606.27 1115.71 584.89C1114.97 580.3 1113.96 575.77 1112.88 571.26C1108.48 553.02 1107.31 533.47 1110.36 513.09C1120.19 447.52 1172.94 395.24 1238.63 386.16C1327.12 373.93 1405.07 439.44 1410.57 526.22C1419.67 520.38 1430.19 518.5 1439.78 522.07C1458.18 528.93 1466.15 553.14 1457.58 576.14C1449.01 599.14 1427.14 612.23 1408.73 605.37C1406.17 604.42 1403.84 603.1 1401.71 601.53C1398.87 675.84 1341.99 736.67 1269.35 740.07C1233.83 741.73 1200.78 729.35 1175.13 707.66C1158.69 695.58 1143.18 672.08 1135.21 653.32Z" fill="#FFC0BB"/>
<path d="M1225.87 536.44C1225.58 545.1 1225.51 553.55 1225.07 561.83C1224.56 569.49 1223.72 580.49 1218.95 586.33C1218.24 587.33 1214.5 591.38 1214.41 597.52C1214.21 603.25 1217.24 608.37 1221.01 611.51C1228.73 618 1238.73 618.62 1247.01 616.58C1238.56 615.09 1230.46 612.18 1225.75 606.66C1223.57 603.92 1222.12 600.85 1222.63 597.98C1223.01 594.68 1224.84 592.96 1225.51 591.96C1227.86 588.85 1230.68 585.61 1231.89 575.03C1232.31 570.49 1232.25 566.08 1231.83 561.71C1230.99 553.01 1229.13 544.51 1225.88 536.44H1225.87Z" fill="#F99893"/>
<path d="M1275.99 547.88C1276.33 555.16 1282.51 560.78 1289.78 560.44C1297.05 560.1 1302.68 553.92 1302.34 546.65C1302 539.37 1295.82 533.75 1288.55 534.09C1281.27 534.43 1275.65 540.61 1275.99 547.88Z" fill="#333333"/>
<path d="M1163.19 560.601C1163.53 567.881 1169.71 573.501 1176.98 573.161C1184.26 572.821 1189.88 566.641 1189.54 559.371C1189.2 552.091 1183.02 546.471 1175.75 546.811C1168.47 547.151 1162.85 553.331 1163.19 560.601Z" fill="#333333"/>
<path d="M1298.12 637.18C1284.69 648.88 1267.23 658.02 1249.88 660.12C1231.12 662.49 1214.55 656.77 1198.59 646.93C1213.46 659.42 1230.68 665.75 1250.31 663.55C1269.43 661.06 1287.3 650.05 1298.13 637.17L1298.12 637.18Z" fill="#F99893"/>
<path d="M1259.43 518.09C1278.02 512.35 1288.54 512.02 1297.04 513.06C1315.57 515.55 1326 523.74 1332.48 526.58C1324.68 512.21 1312.69 504.55 1298.21 502.74C1282.52 500.86 1267.17 507.95 1259.44 518.09H1259.43Z" fill="#07085B"/>
<path d="M1201.33 524.63C1191.8 516.21 1175.38 512.19 1160.31 517.1C1146.49 521.67 1136.19 531.49 1131.32 547.14C1137.14 543.09 1145.75 533.04 1163.46 526.99C1171.57 524.33 1181.94 522.59 1201.33 524.62V524.63Z" fill="#07085B"/>
<path d="M1198.6 776.34C1198.6 776.34 1065.51 793.24 1031.71 820.7C997.91 848.16 835.25 1251.65 835.25 1251.65L970.45 1410.09L1257.75 1412.2C1257.75 1412.2 1473.22 1528.39 1608.42 1418.54C1743.62 1308.69 1673.91 926.33 1595.75 843.95C1517.59 761.56 1378.16 763.68 1378.16 763.68C1378.16 763.68 1251.41 852.4 1198.6 776.35V776.34Z" fill="#6E00FF"/>
<path d="M1456.32 977.03C1451.56 999.02 1448.65 1021.34 1446.57 1043.73C1445.42 1054.92 1444.93 1066.17 1444.28 1077.4C1443.94 1088.65 1443.68 1099.91 1443.84 1111.19C1444.28 1133.71 1445.51 1156.31 1449.39 1178.62C1453.17 1200.84 1458.67 1223.13 1469 1243.2C1462.05 1221.79 1458.61 1199.78 1456.11 1177.7C1453.66 1155.61 1452.81 1133.33 1452.53 1111.07C1452.07 1088.8 1452.61 1066.48 1453.32 1044.15C1454.11 1021.82 1455.13 999.47 1456.32 977.03Z" fill="white"/>
<path d="M1058.12 962.24C1052.04 994.97 1045.6 1027.57 1039.06 1060.12C1032.38 1092.64 1025.46 1125.1 1017.59 1157.3C1009.81 1189.51 1001.16 1221.52 990.699 1252.89C985.459 1268.58 979.609 1284.05 972.749 1299.07C965.989 1314.12 957.969 1328.69 947.219 1341.43C959.449 1330.01 968.439 1315.54 976.559 1300.97C984.439 1286.19 991.229 1270.84 997.079 1255.18C1003.06 1239.56 1008.19 1223.65 1013.05 1207.68C1017.74 1191.66 1022.03 1175.53 1026.03 1159.34C1029.85 1143.11 1033.51 1126.84 1036.79 1110.51C1039.96 1094.15 1043.08 1077.79 1045.7 1061.34C1051.14 1028.48 1055.37 995.43 1058.12 962.24Z" fill="white"/>
<path d="M991.242 1318.77C992.092 1312.08 1042.86 1304.61 1061.52 1303.65C1075.66 1302.92 1169.39 1299.79 1201.27 1298.35L1198.93 1306.55L1199.41 1342.75L1204.65 1366.74C1176.68 1368.51 1108.3 1371.19 1094.06 1374C1075.04 1377.76 1042.05 1392.1 1042.05 1392.1C1042.05 1392.1 1028.33 1388.98 1045.77 1381.46C1059.77 1375.42 1069.6 1366.06 1073.75 1361.41C1076.14 1358.73 1073.55 1353.97 1071.81 1354.42C1024.34 1366.86 1019.45 1368.92 1019.45 1368.92C1019.45 1368.92 963.652 1368.61 1019.13 1356.07C1052.39 1348.55 1064.3 1344.19 1067.27 1340.45C1068.53 1338.86 1066.28 1333.45 1064.25 1333.33C1035.44 1331.55 983.722 1341.76 997.892 1335.07C1009.44 1329.61 1045.82 1323.62 1059.97 1321.37C1060.84 1321.23 1062.24 1315.96 1058.38 1315.64C1030.94 1313.35 990.452 1324.99 991.242 1318.77Z" fill="#FFC0BB"/>
<path d="M1453.86 1246.21C1442.21 1248.99 1430.39 1251.01 1418.69 1253.48C1395.14 1257.77 1371.52 1261.52 1347.82 1264.84C1324.1 1267.95 1300.34 1270.82 1276.53 1273.12C1252.81 1275.47 1228.68 1277.49 1205.2 1278.81L1202.04 1278.99L1201.35 1281.73C1199.33 1289.69 1198.02 1297.46 1197.02 1305.42C1196.02 1313.35 1195.61 1321.35 1195.62 1329.35C1195.69 1337.36 1196.38 1345.37 1197.69 1353.3C1199.15 1361.22 1201.49 1368.97 1204.64 1376.4L1204.91 1377.04L1205.42 1377.38L1231.51 1394.88C1240.2 1400.72 1248.93 1406.52 1257.74 1412.2C1249.56 1405.64 1241.3 1399.2 1233.01 1392.81L1208.74 1374.07C1206.23 1367.05 1204.44 1359.8 1203.45 1352.38C1202.53 1344.77 1202.1 1337.1 1202.33 1329.4C1202.58 1321.71 1203.34 1314.03 1204.42 1306.4C1205.39 1299.78 1206.68 1293.1 1208.32 1286.71C1219.58 1286.34 1230.37 1285.61 1241.43 1284.8C1253.43 1283.91 1265.42 1282.96 1277.38 1281.7C1301.31 1279.23 1325.19 1276.24 1348.95 1272.45C1372.7 1268.62 1396.34 1263.98 1419.75 1258.45C1431.41 1255.47 1443.09 1252.6 1454.57 1248.97C1466.14 1245.72 1477.49 1241.66 1488.79 1237.64C1477.11 1240.48 1465.59 1243.75 1453.85 1246.2L1453.86 1246.21Z" fill="white"/>
<path d="M434.168 1049.91H886.938C900.828 1049.91 913.338 1058.31 918.608 1071.16L1057.25 1409.56H1307.58C1314.58 1409.56 1320.25 1415.23 1320.25 1422.23C1320.25 1429.23 1314.58 1434.9 1307.58 1434.9H584.868C571.518 1434.9 559.418 1427.06 553.958 1414.88L408.218 1089.98C399.778 1071.16 413.548 1049.89 434.168 1049.89V1049.91Z" fill="#07085B"/>
<path d="M1091.04 392.76C1091.04 392.76 1046.67 394.19 1093.23 356.67C1139.79 319.15 1264.79 275.16 1344.92 317.47C1344.92 317.47 1360.94 283.4 1384.1 291.54C1407.26 299.67 1369.04 323.11 1369.04 323.11C1369.04 323.11 1398.62 322.16 1407.64 336.67C1414.31 347.4 1396.2 347.87 1386.3 347.38C1403.14 350.24 1467.69 391.01 1435.29 521.17C1423.77 518.64 1358.15 423.49 1358.15 423.49C1358.15 423.49 1208.09 506.86 1222.93 440.57C1222.93 440.57 1067.46 537.59 1089.52 457.45C1089.52 457.45 1029.4 461.86 1091.02 392.77L1091.04 392.76Z" fill="#07085B"/>
<path d="M1435.43 521.96C1435.43 521.96 1423 517.59 1409.64 528.2C1396.28 538.8 1397.76 576.07 1397.76 576.07C1397.76 576.07 1333.97 617.2 1340.69 443.14C1347.85 257.96 1393.9 457.99 1393.9 457.99L1435.43 521.95V521.96Z" fill="#07085B"/>
<g style="mix-blend-mode:multiply" opacity="0.3">
<path d="M584.12 355.75H119.49C103.44 355.75 90.4297 368.76 90.4297 384.81V576.55C90.4297 592.6 103.44 605.61 119.49 605.61H485.29C500.09 626.27 526.94 663.26 529.31 663.26C531.53 663.26 527.26 628.32 524.25 605.61H584.12C600.17 605.61 613.18 592.6 613.18 576.55V384.81C613.18 368.76 600.17 355.75 584.12 355.75Z" fill="#DAEEF7"/>
</g>
<path d="M564.928 306.02H100.298C84.2483 306.02 71.2383 319.03 71.2383 335.08V526.82C71.2383 542.87 84.2483 555.88 100.298 555.88H466.098C480.898 576.54 507.748 613.53 510.118 613.53C512.338 613.53 508.068 578.59 505.058 555.88H564.928C580.978 555.88 593.988 542.87 593.988 526.82V335.08C593.988 319.03 580.978 306.02 564.928 306.02Z" fill="#FF5B7E"/>
<path d="M199.085 498.165C236.199 482.632 253.695 439.952 238.162 402.838C222.629 365.723 179.949 348.228 142.835 363.761C105.72 379.294 88.2248 421.973 103.758 459.088C119.291 496.202 161.97 513.698 199.085 498.165Z" fill="white"/>
<path d="M133.038 432.859C133.038 432.859 125.818 403.219 143.028 392.119C160.238 381.019 178.608 378.479 191.168 384.869C208.578 393.739 215.728 417.689 210.158 430.949L163.958 419.349L133.048 432.869L133.038 432.859Z" fill="#040744"/>
<path d="M182.488 467.66H161.098V489.02H182.488V467.66Z" fill="#FFC0BB"/>
<path d="M182.488 480.46V467.66H161.098V478.55C165.698 481.02 172.518 482.44 182.488 480.46Z" fill="#F99893"/>
<path d="M216.218 429.43C213.988 428.33 211.398 428.53 209.048 429.71C209.858 408.64 192.638 390.91 170.958 391.66C149.278 390.91 132.068 408.64 132.868 429.71C130.528 428.52 127.928 428.33 125.698 429.43C121.418 431.54 120.088 437.58 122.728 442.93C125.368 448.27 130.978 450.9 135.258 448.79C135.848 448.5 136.388 448.12 136.858 447.69C139.308 465.11 153.868 478.17 170.948 477.93C188.028 478.17 202.588 465.11 205.038 447.69C205.518 448.12 206.048 448.5 206.638 448.79C210.918 450.9 216.528 448.28 219.168 442.93C221.808 437.59 220.478 431.54 216.198 429.43H216.218Z" fill="#FFC0BB"/>
<path d="M184.958 454.319C184.018 458.539 179.178 461.859 173.258 462.049C167.328 462.229 162.298 459.209 161.098 455.049L184.958 454.319Z" fill="white"/>
<path d="M132.879 429.71C132.879 429.71 160.879 421.23 173.129 407.07C173.129 407.07 169.659 424.13 167.079 426.85C167.899 427.39 195.039 414.2 198.729 402.02C202.419 389.84 170.979 385.47 170.979 385.47C170.979 385.47 160.209 390.06 159.659 390.33C159.119 390.6 149.009 391.78 147.849 394.36C146.339 397.71 139.209 398.01 139.209 398.01L134.709 407.38L131.559 417.24L132.899 429.71H132.879Z" fill="#040744"/>
<path d="M109.938 391.15C116.117 393.64 123.267 394.79 130.667 392.51C147.007 387.49 153.477 389.44 155.647 390.67C156.957 391.41 158.508 391.7 159.938 391.23C161.548 390.69 163.047 389.23 162.577 385.55C162.577 385.55 163.227 370.03 149.917 361.18C133.317 366.18 119.217 376.94 109.938 391.14V391.15Z" fill="#040744"/>
<path d="M145.097 390.13C144.617 389.49 144.767 388.57 145.437 388.13C148.167 386.34 155.187 382.3 163.617 381.87C164.407 381.83 165.067 382.47 165.067 383.26C165.067 384 164.487 384.6 163.747 384.64C156.047 385.04 149.437 388.84 146.947 390.46C146.337 390.85 145.527 390.71 145.097 390.13Z" fill="#FEB546"/>
<path d="M352.74 368.189H260.89C259.304 368.189 258.02 369.474 258.02 371.059V377.979C258.02 379.565 259.304 380.849 260.89 380.849H352.74C354.325 380.849 355.61 379.565 355.61 377.979V371.059C355.61 369.474 354.325 368.189 352.74 368.189Z" fill="white"/>
<path d="M321.07 401.59H260.89C259.304 401.59 258.02 402.875 258.02 404.46V411.38C258.02 412.965 259.304 414.25 260.89 414.25H321.07C322.655 414.25 323.94 412.965 323.94 411.38V404.46C323.94 402.875 322.655 401.59 321.07 401.59Z" fill="white"/>
<path d="M413.559 401.59H338.179C336.594 401.59 335.309 402.875 335.309 404.46V411.38C335.309 412.965 336.594 414.25 338.179 414.25H413.559C415.144 414.25 416.429 412.965 416.429 411.38V404.46C416.429 402.875 415.144 401.59 413.559 401.59Z" fill="white"/>
<path d="M534.289 368.189H374.659C373.074 368.189 371.789 369.474 371.789 371.059V377.979C371.789 379.565 373.074 380.849 374.659 380.849H534.289C535.874 380.849 537.159 379.565 537.159 377.979V371.059C537.159 369.474 535.874 368.189 534.289 368.189Z" fill="white"/>
<path d="M534.29 467.069H260.89C259.304 467.069 258.02 468.354 258.02 469.939V476.859C258.02 478.444 259.304 479.729 260.89 479.729H534.29C535.875 479.729 537.16 478.444 537.16 476.859V469.939C537.16 468.354 535.875 467.069 534.29 467.069Z" fill="white"/>
<path d="M399.35 435H260.89C259.304 435 258.02 436.285 258.02 437.87V444.79C258.02 446.375 259.304 447.66 260.89 447.66H399.35C400.935 447.66 402.22 446.375 402.22 444.79V437.87C402.22 436.285 400.935 435 399.35 435Z" fill="white"/>
<path d="M534.286 435H426.186C424.601 435 423.316 436.285 423.316 437.87V444.79C423.316 446.375 424.601 447.66 426.186 447.66H534.286C535.871 447.66 537.156 446.375 537.156 444.79V437.87C537.156 436.285 535.871 435 534.286 435Z" fill="white"/>
<path d="M695.063 1281.47C710.524 1278.21 719.441 1258.42 714.98 1237.27C710.519 1216.12 694.369 1201.62 678.908 1204.88C663.447 1208.14 654.53 1227.93 658.992 1249.08C663.453 1270.23 679.603 1284.73 695.063 1281.47Z" fill="white"/>
<path d="M535.359 97.0396L545.049 170.02L493.209 132.16L334.539 51.0996L457.269 62.3396C457.269 62.3396 519.789 77.5296 523.179 80.5896C526.559 83.6496 535.369 97.0396 535.369 97.0396H535.359Z" fill="#5105B6"/>
<path d="M589.709 52.9596L334.539 51.0996L535.359 97.0396L589.709 52.9596Z" fill="#6E00FF"/>
<path d="M453.329 170.46L520.199 116.75L334.539 51.0996L453.329 170.46Z" fill="#6E00FF"/>
<path d="M850.96 491.501L847.59 486.521C852.75 483.031 857.47 478.761 861.63 473.811L866.23 477.681C861.71 483.051 856.57 487.701 850.96 491.501Z" fill="#FEB546"/>
<path d="M884.723 442.52L878.993 440.72C882.473 429.63 884.773 417.05 885.833 403.31L891.823 403.77C890.733 417.96 888.343 431 884.733 442.52H884.723ZM891.623 364.5L885.643 365.11C885.473 363.46 885.283 361.81 885.063 360.17C884.323 354.58 883.253 348.93 881.883 343.38C880.623 338.26 879.073 333.11 877.293 328.07L882.963 326.06C884.813 331.29 886.413 336.64 887.723 341.94C889.143 347.7 890.253 353.57 891.033 359.38C891.253 361.04 891.453 362.77 891.633 364.51L891.623 364.5ZM860.793 293.73C854.373 283.24 846.703 272.91 838.013 263.04L842.523 259.07C851.443 269.2 859.313 279.81 865.923 290.59L860.793 293.73ZM673.043 279.51C668.953 280.52 658.523 280.75 651.833 276.76C646.833 273.78 642.663 269.09 639.793 263.22L645.193 260.58C647.593 265.48 650.863 269.19 654.913 271.6C659.733 274.48 668.343 274.48 671.603 273.68C672.043 273.57 672.203 273.49 672.203 273.49C672.453 273.33 672.763 273.13 673.063 272.93L676.403 277.93C676.063 278.16 675.713 278.38 675.363 278.6C674.773 278.97 674.013 279.27 673.043 279.51ZM810.633 236.22C801.073 228.08 790.713 220.35 779.863 213.25L783.153 208.22C794.223 215.46 804.773 223.34 814.533 231.64L810.633 236.22ZM698.053 244.16L692.173 242.93C692.953 239.23 693.343 235.45 693.353 231.71C693.363 226.43 692.693 220.99 691.343 215.52C690.613 212.55 689.663 209.52 688.543 206.52L694.163 204.41C695.373 207.63 696.383 210.89 697.173 214.08C698.643 220.02 699.373 225.96 699.363 231.73C699.353 235.88 698.913 240.07 698.053 244.17V244.16ZM645.223 225.67L639.803 223.08C645.243 211.69 655.483 201.72 667.873 195.71L668.703 195.32L671.263 200.76L670.503 201.12C659.313 206.54 650.093 215.49 645.233 225.67H645.223ZM744.923 198.72C734.023 195.39 725.373 193.37 721.183 193.17C716.383 192.94 711.983 192.89 707.753 193.02L707.573 187.01C711.963 186.88 716.513 186.93 721.473 187.16C727.863 187.46 740.003 190.93 746.683 192.97L744.933 198.72H744.923ZM669.063 174.4C660.873 164.8 651.283 156.46 640.573 149.61L643.813 144.55C655.023 151.72 665.063 160.45 673.633 170.5L669.063 174.4Z" fill="#FEB546"/>
<path d="M606.091 134.22C599.771 132.48 593.391 131.28 587.121 130.64L587.731 124.66C594.331 125.33 601.051 126.6 607.691 128.42L606.101 134.21L606.091 134.22Z" fill="#FEB546"/>
<path d="M330.389 983.909C330.389 983.909 328.179 1005.72 310.969 1007.23C328.179 1008.74 330.389 1030.55 330.389 1030.55C330.389 1030.55 332.599 1008.74 349.809 1007.23C332.599 1005.72 330.389 983.909 330.389 983.909Z" fill="#FF5B7E"/>
<path d="M978.19 673.069C978.19 673.069 974.67 707.789 947.27 710.189C974.67 712.589 978.19 747.309 978.19 747.309C978.19 747.309 981.709 712.589 1009.11 710.189C981.709 707.789 978.19 673.069 978.19 673.069Z" fill="#6E00FF"/>
<path d="M30.92 253.659C30.92 253.659 27.4 288.379 0 290.779C27.4 293.179 30.92 327.899 30.92 327.899C30.92 327.899 34.44 293.179 61.84 290.779C34.44 288.379 30.92 253.659 30.92 253.659Z" fill="#6E00FF"/>
<path d="M693.4 544.1C693.4 544.1 690.71 574.86 669.82 576.99C690.72 579.12 693.4 609.88 693.4 609.88C693.4 609.88 696.09 579.12 716.98 576.99C696.08 574.86 693.4 544.1 693.4 544.1Z" fill="#FEB546"/>
<path d="M151.252 94.3496C151.252 94.3496 148.562 125.11 127.672 127.24C148.572 129.37 151.252 160.13 151.252 160.13C151.252 160.13 153.942 129.37 174.832 127.24C153.932 125.11 151.252 94.3496 151.252 94.3496Z" fill="#FEB546"/>
<path d="M1659.96 358.56C1769.83 358.56 1858.89 278.294 1858.89 179.28C1858.89 80.2664 1769.83 0 1659.96 0C1550.1 0 1461.03 80.2664 1461.03 179.28C1461.03 278.294 1550.1 358.56 1659.96 358.56Z" fill="#E6F7FF"/>
<path d="M1537.59 385.38C1537.59 398.32 1525.95 408.81 1511.6 408.81C1497.25 408.81 1485.6 398.32 1485.6 385.38C1485.6 372.44 1497.24 361.95 1511.6 361.95C1525.96 361.95 1537.59 372.44 1537.59 385.38Z" fill="#E6F7FF"/>
<path d="M1750.01 149.61C1745.8 126.29 1729.73 107.34 1705.28 105.57C1674.6 103.35 1662.54 131.05 1660.34 133.61C1658.93 131.94 1652.57 115.5 1635.3 107.87C1607.04 95.3896 1572.79 114.74 1568.93 155.97C1566.93 177.34 1573.2 193.57 1585.34 210.6C1602.77 235.05 1633.14 261.43 1657.3 279.27C1658.2 279.93 1658.81 279.93 1659.68 279.27C1672.66 269.47 1716.72 239.16 1739.3 203.92C1750 187.21 1753.53 169.09 1750.01 149.6V149.61Z" fill="#6E00FF"/>
</g>
<defs>
<clipPath id="clip0_3310_91">
<rect width="1858.89" height="1465.76" fill="white"/>
</clipPath>
</defs>
</svg>
